<?xml version="1.0" encoding="UTF-8"?>
<svg version="1.1" xmlns="http://www.w3.org/2000/svg" width="1800" height="1800">
<path d="M0 0 C594 0 1188 0 1800 0 C1800 594 1800 1188 1800 1800 C1206 1800 612 1800 0 1800 C0 1206 0 612 0 0 Z " fill="#FDFDFD" transform="translate(0,0)"/>
<path d="M0 0 C90.57504285 0 90.57504285 0 105.1875 7.5625 C106.17447876 8.06523438 106.17447876 8.06523438 107.18139648 8.578125 C114.14937256 12.32186 119.54394216 17.34279717 125 23 C125.66386719 23.63292969 126.32773438 24.26585937 127.01171875 24.91796875 C130.97870622 28.95627285 133.5994552 33.57614449 136.1875 38.5625 C136.50879883 39.16860107 136.83009766 39.77470215 137.16113281 40.39916992 C144.28611638 54.86465491 144.56451754 69.13233251 144.45410156 84.90795898 C144.45297124 87.18600443 144.45361055 89.46405134 144.45587158 91.74209595 C144.45701243 97.88370376 144.43360541 104.02499479 144.40557575 110.16652942 C144.38045663 116.60067278 144.37821184 123.03482457 144.37347412 129.4690094 C144.36248109 140.25454801 144.33754952 151.03995766 144.30175781 161.82543945 C144.26495587 172.92699625 144.2367303 184.02852146 144.21972656 195.13012695 C144.21865457 195.82315019 144.21758258 196.51617343 144.21647811 197.23019737 C144.20722482 203.25994297 144.19861452 209.28968944 144.19006729 215.31943607 C144.15253162 241.21306581 144.07282009 267.10638977 144 293 C96.48 293 48.96 293 0 293 C0 196.31 0 99.62 0 0 Z " fill="#0098DA" transform="translate(912,728)"/>
<path d="M0 0 C47.52 0 95.04 0 144 0 C144 96.69 144 193.38 144 293 C44.13654618 293 44.13654618 293 23 274 C22.08347656 273.22269531 22.08347656 273.22269531 21.1484375 272.4296875 C9.11316712 261.49352857 1.91053769 244.94110221 0 229 C-0.13525732 225.82078396 -0.13089938 222.64620335 -0.12025452 219.4644928 C-0.12110894 218.52337833 -0.12196337 217.58226387 -0.12284368 216.61263078 C-0.12448641 213.46968025 -0.1189969 210.32678348 -0.11352539 207.18383789 C-0.11324323 204.92667645 -0.11340181 202.66951491 -0.1139679 200.41235352 C-0.11425475 194.29105438 -0.10837601 188.16977485 -0.10139394 182.04848027 C-0.09514186 175.64897464 -0.09455513 169.24946855 -0.09336853 162.84996033 C-0.09061377 152.11082557 -0.08436793 141.37169938 -0.07543945 130.63256836 C-0.06625442 119.57332393 -0.05919039 108.51408146 -0.05493164 97.45483398 C-0.05466364 96.76570177 -0.05439565 96.07656956 -0.05411953 95.36655456 C-0.05180655 89.37169258 -0.04965381 83.37683054 -0.04751682 77.3819685 C-0.03811442 51.58797224 -0.01819183 25.79399503 0 0 Z " fill="#0098DA" transform="translate(746,728)"/>
<path d="M0 0 C14.45366934 11.95064981 24.25060834 28.52292869 26.85668945 47.19262695 C27.36033981 53.72598317 27.20809693 60.29012902 27.1496582 66.8371582 C27.14405024 68.70187536 27.13978583 70.566597 27.13679504 72.43132019 C27.12544068 77.29583331 27.09605655 82.16006987 27.06268311 87.0244751 C27.03177727 92.00561789 27.01824624 96.98680617 27.00317383 101.96801758 C26.97117615 111.70967433 26.92009626 121.45112748 26.85668945 131.19262695 C16.27669974 131.28578875 5.69680949 131.3566244 -4.88350868 131.39987564 C-9.79773189 131.42064638 -14.71167205 131.4487691 -19.62573242 131.49438477 C-24.3784903 131.53822111 -29.13097795 131.56184286 -33.88392258 131.57213593 C-35.68660097 131.57946012 -37.48926655 131.59376009 -39.29182816 131.61554718 C-53.31565302 131.77812716 -65.56661711 130.11427993 -78.26831055 123.63012695 C-78.9315332 123.29352051 -79.59475586 122.95691406 -80.27807617 122.61010742 C-97.17073147 113.57440657 -108.7450288 97.30965976 -114.45581055 79.31762695 C-119.97995103 60.71735646 -118.42928471 40.58893115 -109.45581055 23.38012695 C-99.76146905 5.94702275 -84.81642442 -6.60159383 -65.8503418 -12.90112305 C-43.12416376 -18.65593484 -18.57969944 -14.56188952 0 0 Z " fill="#7ABC10" transform="translate(863.143310546875,572.807373046875)"/>
<path d="M0 0 C7.59 0 15.18 0 23 0 C23 9.57 23 19.14 23 29 C36.86 29 50.72 29 65 29 C67.124375 35.249375 69.24875 41.49875 71.4375 47.9375 C76.80235231 63.6836574 82.26391537 79.38458773 88 95 C89.75609371 91.75378932 90.87004443 88.48607028 91.95532227 84.9621582 C92.3323378 83.74442215 92.70935333 82.5266861 93.09779358 81.27204895 C93.29639544 80.62480173 93.49499729 79.97755451 93.69961739 79.31069374 C94.32272457 77.28019191 94.95010323 75.25105394 95.57859802 73.22221375 C96.91042617 68.92016344 98.23674194 64.61642411 99.5625 60.3125 C101.10231771 55.31474873 102.64436719 50.31770468 104.19154167 45.32222557 C104.81067815 43.31931174 105.42598767 41.31524794 106.04115295 39.31111145 C106.41501633 38.10283188 106.7888797 36.89455231 107.17407227 35.6496582 C107.5033522 34.58028519 107.83263214 33.51091217 108.17189026 32.40913391 C109 30 109 30 110 29 C111.56172745 28.91314397 113.12729344 28.89297781 114.69140625 28.90234375 C115.54162354 28.90484131 116.39184082 28.90733887 117.26782227 28.90991211 C118.35506592 28.91901611 119.44230957 28.92812012 120.5625 28.9375 C122.42439572 28.94898837 124.28629371 28.96011461 126.14819336 28.97094727 C127.76546224 28.98063151 129.38273112 28.99031576 131 29 C125.73451162 44.98748568 120.27288868 60.89385839 114.625 76.75 C113.87711848 78.85451666 113.12939896 80.95909089 112.38183594 83.0637207 C110.91973176 87.17857288 109.45618585 91.29290729 107.99121094 95.40673828 C106.51525824 99.55143471 105.04195542 103.69705899 103.5710144 107.84353638 C102.46561734 110.95876334 101.35778972 114.07312307 100.25 117.1875 C99.88084473 118.2280957 99.51168945 119.26869141 99.13134766 120.34082031 C98.09991176 123.23190117 97.0548884 126.11739699 96 129 C95.58387451 130.14098145 95.16774902 131.28196289 94.73901367 132.45751953 C94.09283081 134.18977783 94.09283081 134.18977783 93.43359375 135.95703125 C93.04486084 137.00479736 92.65612793 138.05256348 92.25561523 139.13208008 C88.94595549 146.69159262 83.7484181 150.64092118 76.4296875 154.08984375 C71.94567376 155.76954665 67.77016874 156.15707801 63 156.1875 C61.989375 156.20167969 60.97875 156.21585938 59.9375 156.23046875 C57 156 57 156 52 154 C52 147.73 52 141.46 52 135 C56.8828125 135.09765625 56.8828125 135.09765625 61.765625 135.1953125 C64.92595474 135.00447133 66.4974407 134.88671696 69 133 C70.53450988 130.62809815 70.53450988 130.62809815 71.6875 127.8125 C72.10386719 126.89082031 72.52023437 125.96914062 72.94921875 125.01953125 C75.62397273 117.3333423 74.64214601 112.76178643 71.58203125 105.52734375 C71.21321838 104.61877625 70.84440552 103.71020874 70.4644165 102.77410889 C69.26220339 99.82213819 68.03751139 96.88007342 66.8125 93.9375 C65.98134303 91.90733102 65.15184272 89.87648304 64.32397461 87.8449707 C62.66948547 83.78998832 61.0071722 79.73836774 59.33789062 75.68945312 C56.44667203 68.66809024 53.62159729 61.62096186 50.81185913 54.56668091 C50.08317626 52.73935023 49.35084497 50.91347575 48.6184082 49.08764648 C46.34448799 43.41512952 44.11597612 37.73338743 42 32 C41.67 36.62 41.34 41.24 41 46 C35.06 46 29.12 46 23 46 C23.04406276 52.7814869 23.11380217 59.56203474 23.20751953 66.34301758 C23.23577315 68.65055881 23.25696571 70.9581976 23.27099609 73.26586914 C23.29236444 76.58009964 23.33898445 79.89315151 23.390625 83.20703125 C23.39185364 84.2414888 23.39308228 85.27594635 23.39434814 86.3417511 C23.41406677 87.3025206 23.4337854 88.2632901 23.45410156 89.25317383 C23.46298401 90.09922684 23.47186646 90.94527985 23.48101807 91.81697083 C23.83139128 94.14735179 23.83139128 94.14735179 25.79974365 95.77714539 C30.40524444 98.33678254 35.60741658 97.20579627 40.5 96 C42.2325 95.505 42.2325 95.505 44 95 C44.70146314 97.22481229 45.38565954 99.45507368 46.0625 101.6875 C46.44535156 102.92886719 46.82820313 104.17023438 47.22265625 105.44921875 C47.96785758 108.8531786 47.99851065 110.71559076 47 114 C35.23956264 118.22711484 23.28985419 121.94987889 11.00390625 117.17578125 C5.01501024 113.66182862 1.87453283 108.52698185 0 102 C-0.24050903 99.15249634 -0.24050903 99.15249634 -0.22705078 96.17822266 C-0.22689972 95.05751373 -0.22674866 93.93680481 -0.22659302 92.78213501 C-0.21627045 91.58817108 -0.20594788 90.39420715 -0.1953125 89.1640625 C-0.1924826 87.92957367 -0.18965271 86.69508484 -0.18673706 85.42318726 C-0.17556522 81.49035851 -0.15046564 77.55775963 -0.125 73.625 C-0.11383825 70.95443041 -0.10584119 68.28386299 -0.09765625 65.61328125 C-0.07563562 59.07543261 -0.04112592 52.53775525 0 46 C-3.63 46 -7.26 46 -11 46 C-11 40.39 -11 34.78 -11 29 C-7.37 29 -3.74 29 0 29 C0 19.43 0 9.86 0 0 Z " fill="#7CBD13" transform="translate(1126,1106)"/>
<path d="M0 0 C1.56450632 1.19996116 3.1081064 2.42788871 4.625 3.6875 C5.59566406 4.47253906 5.59566406 4.47253906 6.5859375 5.2734375 C13.93462753 11.85195914 18.64298644 21.89956153 19.625 31.6875 C19.80677855 35.69645407 19.90461273 39.68188515 19.625 43.6875 C18.625 44.6875 18.625 44.6875 15.92320251 44.80775452 C14.71741043 44.80553391 13.51161835 44.80331329 12.26928711 44.80102539 C11.60589828 44.80117142 10.94250946 44.80131744 10.25901794 44.8014679 C8.05676044 44.80076881 5.85458655 44.79297665 3.65234375 44.78515625 C2.12919664 44.78329206 0.60604893 44.78186816 -0.917099 44.78086853 C-4.93337651 44.77704346 -8.94961808 44.76721328 -12.96588135 44.75616455 C-17.06123366 44.74595019 -21.15659176 44.74137086 -25.25195312 44.73632812 C-33.29298528 44.725591 -41.33398817 44.70851472 -49.375 44.6875 C-48.80518371 46.60602631 -48.21692514 48.51908059 -47.62109375 50.4296875 C-47.2955249 51.49558105 -46.96995605 52.56147461 -46.63452148 53.65966797 C-44.36532496 59.11471261 -40.20729419 62.31986691 -34.98046875 64.84375 C-27.6912985 67.20426091 -20.03773509 66.32083932 -13.26953125 62.90625 C-10.60571231 61.19261802 -8.57577244 58.94940501 -6.375 56.6875 C-1.83512438 55.07258962 1.98739301 56.30913104 6.4375 57.625 C7.13037109 57.82029297 7.82324219 58.01558594 8.53710938 58.21679688 C10.23589961 58.69714446 11.93086595 59.19098021 13.625 59.6875 C12.45726323 65.99612669 8.02458965 70.73114666 3.171875 74.6875 C-8.88886061 82.86905164 -22.04381692 85.44345656 -36.375 83.6875 C-47.88474896 81.16974242 -58.09274563 75.48143805 -65.25 66 C-73.26062879 53.26020482 -75.70342255 40.16525351 -72.7109375 25.4140625 C-71.80536941 22.6658602 -70.73235098 20.2415687 -69.375 17.6875 C-68.87742187 16.74390625 -68.37984375 15.8003125 -67.8671875 14.828125 C-61.48459043 3.84412074 -51.70069183 -2.87132493 -39.578125 -6.42578125 C-26.11791715 -9.59983845 -11.54572653 -7.70872569 0 0 Z " fill="#0299DA" transform="translate(802.375,1141.3125)"/>
<path d="M0 0 C6.3435942 4.84227691 11.74446293 10.72107549 15.5625 17.75 C15.5625 18.41 15.5625 19.07 15.5625 19.75 C14.00195312 20.98681641 14.00195312 20.98681641 11.84375 22.3515625 C11.07675781 22.84140625 10.30976562 23.33125 9.51953125 23.8359375 C8.70871094 24.34382813 7.89789062 24.85171875 7.0625 25.375 C6.25167969 25.890625 5.44085937 26.40625 4.60546875 26.9375 C2.5950603 28.21470066 0.58069603 29.48515437 -1.4375 30.75 C-3.65764031 28.58971922 -5.30895236 26.46962234 -7 23.875 C-11.13299799 18.23626153 -16.95858038 15.90963987 -23.4375 13.75 C-33.47021604 12.69462774 -41.08905635 13.9483286 -49.4375 19.75 C-57.26025604 26.35045041 -61.37477345 35.70831856 -62.4375 45.75 C-63.20653235 59.42990237 -61.42198078 70.66286139 -52.9453125 81.69140625 C-47.64560983 87.56165107 -41.08456967 91.0469378 -33.26171875 92.23046875 C-24.3617285 92.62483958 -16.28964348 90.55028021 -9.203125 85 C-6.22613416 82.14602531 -4.16461704 79.50853565 -2.4375 75.75 C2.21980009 76.32771852 5.82928189 78.35293752 9.8125 80.6875 C10.76769531 81.22793945 10.76769531 81.22793945 11.7421875 81.77929688 C16.43158657 84.48817315 16.43158657 84.48817315 17.5625 86.75 C8.53670517 101.33013012 -3.02719755 109.1048982 -19.75390625 113.3359375 C-34.5196364 115.61420154 -47.34709173 113.15609841 -59.7734375 104.72265625 C-73.89320892 94.26740029 -83.29905223 80.27731899 -86.4375 62.75 C-88.26498526 43.92370233 -85.2733412 27.25286738 -73.40625 12.16796875 C-55.01973799 -9.42323461 -24.33097172 -15.86320193 0 0 Z " fill="#7BBC12" transform="translate(1062.4375,1111.25)"/>
<path d="M0 0 C1.36125 0.804375 1.36125 0.804375 2.75 1.625 C8.9094588 8.12665095 11.12968761 15.9686881 11.11352539 24.69628906 C11.11367142 25.36011597 11.11381744 26.02394287 11.1139679 26.70788574 C11.11327332 28.8938325 11.10550231 31.07969319 11.09765625 33.265625 C11.09579045 34.78448439 11.09436731 36.30334438 11.09336853 37.82220459 C11.0895561 41.81377839 11.0797367 45.80531562 11.06866455 49.796875 C11.05842303 53.8723908 11.05386504 57.94791253 11.04882812 62.0234375 C11.03811327 70.01564362 11.0205268 78.00781305 11 86 C3.74 86 -3.52 86 -11 86 C-11.01458252 84.3507251 -11.02916504 82.7014502 -11.04418945 81.00219727 C-11.10235414 74.85745034 -11.17958667 68.71306289 -11.26245117 62.56860352 C-11.29722663 59.91394197 -11.32367187 57.25957104 -11.34643555 54.60473633 C-11.38013789 50.77916148 -11.43246396 46.9542147 -11.48828125 43.12890625 C-11.49467117 41.95042618 -11.5010611 40.77194611 -11.50764465 39.55775452 C-11.64476257 31.79595977 -11.81124989 24.11282749 -17.625 18.4375 C-22.64015281 16.3014164 -26.86497222 16.07110288 -32.109375 17.625 C-38.81493161 20.5359393 -44.16697512 26.27257734 -47 33 C-47.32479457 35.54321988 -47.32479457 35.54321988 -47.31884766 38.31933594 C-47.33871735 39.38013367 -47.35858704 40.4409314 -47.37905884 41.53387451 C-47.39638565 43.24187225 -47.39638565 43.24187225 -47.4140625 44.984375 C-47.43342865 46.15510559 -47.4527948 47.32583618 -47.4727478 48.53204346 C-47.53252707 52.27128819 -47.578923 56.01056374 -47.625 59.75 C-47.66318124 62.28516968 -47.70223305 64.8203264 -47.7421875 67.35546875 C-47.83986571 73.57024512 -47.91944938 79.78488349 -48 86 C-55.59 86 -63.18 86 -71 86 C-71 56.63 -71 27.26 -71 -3 C-64.4 -3 -57.8 -3 -51 -3 C-50.505 4.92 -50.505 4.92 -50 13 C-48.68 11.02 -47.36 9.04 -46 7 C-33.96735295 -4.02992646 -14.50218887 -9.055952 0 0 Z " fill="#0399DA" transform="translate(957,1138)"/>
<path d="M0 0 C1.36125 0.804375 1.36125 0.804375 2.75 1.625 C8.9094588 8.12665095 11.12968761 15.9686881 11.11352539 24.69628906 C11.11367142 25.36011597 11.11381744 26.02394287 11.1139679 26.70788574 C11.11327332 28.8938325 11.10550231 31.07969319 11.09765625 33.265625 C11.09579045 34.78448439 11.09436731 36.30334438 11.09336853 37.82220459 C11.0895561 41.81377839 11.0797367 45.80531562 11.06866455 49.796875 C11.05842303 53.8723908 11.05386504 57.94791253 11.04882812 62.0234375 C11.03811327 70.01564362 11.0205268 78.00781305 11 86 C3.74 86 -3.52 86 -11 86 C-11.01458252 84.3507251 -11.02916504 82.7014502 -11.04418945 81.00219727 C-11.10235414 74.85745034 -11.17958667 68.71306289 -11.26245117 62.56860352 C-11.29722663 59.91394197 -11.32367187 57.25957104 -11.34643555 54.60473633 C-11.38013789 50.77916148 -11.43246396 46.9542147 -11.48828125 43.12890625 C-11.49467117 41.95042618 -11.5010611 40.77194611 -11.50764465 39.55775452 C-11.64476257 31.79595977 -11.81124989 24.11282749 -17.625 18.4375 C-22.64015281 16.3014164 -26.86497222 16.07110288 -32.109375 17.625 C-38.81493161 20.5359393 -44.16697512 26.27257734 -47 33 C-47.32479457 35.54321988 -47.32479457 35.54321988 -47.31884766 38.31933594 C-47.33871735 39.38013367 -47.35858704 40.4409314 -47.37905884 41.53387451 C-47.39638565 43.24187225 -47.39638565 43.24187225 -47.4140625 44.984375 C-47.43342865 46.15510559 -47.4527948 47.32583618 -47.4727478 48.53204346 C-47.53252707 52.27128819 -47.578923 56.01056374 -47.625 59.75 C-47.66318124 62.28516968 -47.70223305 64.8203264 -47.7421875 67.35546875 C-47.83986571 73.57024512 -47.91944938 79.78488349 -48 86 C-55.59 86 -63.18 86 -71 86 C-71 56.63 -71 27.26 -71 -3 C-64.4 -3 -57.8 -3 -51 -3 C-50.505 4.92 -50.505 4.92 -50 13 C-48.68 11.02 -47.36 9.04 -46 7 C-33.96735295 -4.02992646 -14.50218887 -9.055952 0 0 Z " fill="#0399DA" transform="translate(655,1138)"/>
<path d="M0 0 C7.59 0 15.18 0 23 0 C23 9.57 23 19.14 23 29 C28.94 29 34.88 29 41 29 C41 34.61 41 40.22 41 46 C35.06 46 29.12 46 23 46 C23.04406276 52.7814869 23.11380217 59.56203474 23.20751953 66.34301758 C23.23577315 68.65055881 23.25696571 70.9581976 23.27099609 73.26586914 C23.29236444 76.58009964 23.33898445 79.89315151 23.390625 83.20703125 C23.39185364 84.2414888 23.39308228 85.27594635 23.39434814 86.3417511 C23.41406677 87.3025206 23.4337854 88.2632901 23.45410156 89.25317383 C23.46298401 90.09922684 23.47186646 90.94527985 23.48101807 91.81697083 C23.83139128 94.14735179 23.83139128 94.14735179 25.79974365 95.77714539 C30.40524444 98.33678254 35.60741658 97.20579627 40.5 96 C42.2325 95.505 42.2325 95.505 44 95 C44.70146314 97.22481229 45.38565954 99.45507368 46.0625 101.6875 C46.44535156 102.92886719 46.82820312 104.17023438 47.22265625 105.44921875 C47.96785758 108.8531786 47.99851065 110.71559076 47 114 C35.24805282 118.22406317 23.27797651 121.96396136 11.00390625 117.171875 C5.55836375 113.98734722 2.0612782 109.31644334 0.40898132 103.2616272 C-0.48380892 98.32458341 -0.23953726 93.28460301 -0.1953125 88.28515625 C-0.1924826 87.07427841 -0.18965271 85.86340057 -0.18673706 84.61582947 C-0.1755803 80.76461732 -0.15048355 76.91364136 -0.125 73.0625 C-0.1149644 70.44466483 -0.10583956 67.82682599 -0.09765625 65.20898438 C-0.07565563 58.80589917 -0.04115642 52.40298958 0 46 C-3.63 46 -7.26 46 -11 46 C-11 40.39 -11 34.78 -11 29 C-7.37 29 -3.74 29 0 29 C0 19.43 0 9.86 0 0 Z " fill="#059ADA" transform="translate(683,1106)"/>
<path d="M0 0 C7.59 0 15.18 0 23 0 C23 39.6 23 79.2 23 120 C15.41 120 7.82 120 0 120 C0 80.4 0 40.8 0 0 Z " fill="#0399DA" transform="translate(546,1104)"/>
<path d="M0 0 C0 6.93 0 13.86 0 21 C-2.475 21.391875 -4.95 21.78375 -7.5 22.1875 C-13.74130363 23.29625588 -19.2451132 24.53328816 -24 29 C-24.84498047 29.76223877 -25.68996094 30.52447754 -26.56054688 31.30981445 C-30.43937226 36.03707071 -29.72659439 41.78657159 -29.70703125 47.6171875 C-29.72215256 48.82948029 -29.73727386 50.04177307 -29.75285339 51.290802 C-29.79574679 55.15239032 -29.80457071 59.01319713 -29.8125 62.875 C-29.83564278 65.49741663 -29.86100764 68.11981467 -29.88867188 70.7421875 C-29.95154157 77.16152749 -29.98386394 83.58037929 -30 90 C-37.59 90 -45.18 90 -53 90 C-53 60.63 -53 31.26 -53 1 C-46.07 1 -39.14 1 -32 1 C-31.505 8.92 -31.505 8.92 -31 17 C-30.071875 15.659375 -29.14375 14.31875 -28.1875 12.9375 C-20.53498984 3.03148991 -12.24059054 0 0 0 Z " fill="#059ADA" transform="translate(881,1134)"/>
<path d="M0 0 C7.59 0 15.18 0 23 0 C23 29.37 23 58.74 23 89 C15.41 89 7.82 89 0 89 C0 59.63 0 30.26 0 0 Z " fill="#7DBD16" transform="translate(1086,1135)"/>
<path d="M0 0 C5.46192241 3.06958281 8.85161893 7.45323786 11.625 13 C11.625 14.98 11.625 16.96 11.625 19 C-3.555 19 -18.735 19 -34.375 19 C-32.10340904 9.91363615 -29.69444626 5.37755236 -22.375 0 C-15.2029138 -3.41813473 -7.216855 -3.24267161 0 0 Z " fill="#FBFCFD" transform="translate(786.375,1152)"/>
<path d="M0 0 C7.59 0 15.18 0 23 0 C23 7.26 23 14.52 23 22 C15.41 22 7.82 22 0 22 C0 14.74 0 7.48 0 0 Z " fill="#7DBD16" transform="translate(1086,1101)"/>
</svg>
